<?xml version="1.0" encoding="UTF-8" standalone="no"?>
<!-- Created with Inkscape (http://www.inkscape.org/) -->

<svg
   width="27.199467mm"
   height="16.040455mm"
   viewBox="0 0 27.199467 16.040455"
   version="1.1"
   id="svg1"
   xml:space="preserve"
   inkscape:version="1.3.2 (091e20e, 2023-11-25, custom)"
   sodipodi:docname="logo fitrah mind.svg"
   xmlns:inkscape="http://www.inkscape.org/namespaces/inkscape"
   xmlns:sodipodi="http://sodipodi.sourceforge.net/DTD/sodipodi-0.dtd"
   xmlns="http://www.w3.org/2000/svg"
   xmlns:svg="http://www.w3.org/2000/svg"><sodipodi:namedview
     id="namedview1"
     pagecolor="#ffffff"
     bordercolor="#000000"
     borderopacity="0.25"
     inkscape:showpageshadow="2"
     inkscape:pageopacity="0.0"
     inkscape:pagecheckerboard="0"
     inkscape:deskcolor="#d1d1d1"
     inkscape:document-units="mm"
     inkscape:zoom="1.0532399"
     inkscape:cx="330.88378"
     inkscape:cy="348.92335"
     inkscape:window-width="1920"
     inkscape:window-height="1009"
     inkscape:window-x="-8"
     inkscape:window-y="-8"
     inkscape:window-maximized="1"
     inkscape:current-layer="layer1"
     inkscape:export-bgcolor="#00000000" /><defs
     id="defs1" /><g
     inkscape:label="Layer 1"
     inkscape:groupmode="layer"
     id="layer1"
     transform="translate(-55.008016,-87.573453)"><path
       style="mix-blend-mode:normal;fill:#f5efe7;fill-opacity:1;stroke:#ff2929;stroke-width:0.1;stroke-dasharray:none;stroke-opacity:0"
       d="m 58.877107,96.982369 h -0.376815 c 0,0 -4.066444,-2.198079 -3.35992,-5.934813 0,0 0.408216,-2.951704 3.972243,-3.375619 0,0 1.781711,-0.366016 4.057615,0.910711 0,0 1.532073,0.821546 2.964227,2.009458 0,0 1.221218,1.165707 3.852385,-0.610609 0,0 3.742996,-2.278159 6.066679,-2.121153 0,0 3.155813,-0.0157 3.862339,2.307982 0,0 0.714375,2.072475 -1.428752,2.920305 0,0 1.530805,-0.777178 0.745777,-2.857502 0,0 -0.464382,-1.626277 -3.728362,-1.648481 0,0 -1.523476,0.0078 -4.271074,1.460074 0,0 -0.924649,0.715913 -2.934107,1.470847 -0.0222,0.03331 -1.276727,0.377467 -2.398026,-0.344161 0,0 -2.635902,-2.476934 -5.053789,-2.767395 0,0 -2.928155,-0.533819 -4.137098,1.593607 0,0 -1.271745,1.468003 -0.227658,3.642531 0,0 -0.0314,0.675124 2.402186,2.472838 l -0.0039,-1.836966 -0.922408,0.0039 0.0039,-0.27476 0.942034,0.01178 -0.0039,-0.891007 c 0,0 0.178495,-1.083044 1.433018,-1.188513 0,0 0.847463,-0.102837 0.973068,0.690041 0,0 0.07458,0.353263 -0.471017,0.447466 0,0 0.133455,-1.051937 -0.836055,-0.773252 0,0 -0.221119,0.02156 -0.30716,0.410129 l 0.0083,1.301707 0.988075,-0.0028 v 0.277549 l -0.988075,-0.0056 v 3.025288 l 0.42465,-0.0056 0.0056,0.741057 H 60.01727 c 0,0 -0.04163,-0.655016 -0.313631,-0.652241 l -0.0023,3.141533 -0.0039,0.56522 0.251209,0.47494 -1.048012,-1.25605 z"
       id="path7"
       inkscape:export-filename="xampp\htdocs\quran-web\public\images\fitrahmindlogo.svg"
       inkscape:export-xdpi="96.519997"
       inkscape:export-ydpi="96.519997" /><path
       style="mix-blend-mode:normal;fill:#f5efe7;fill-opacity:1;stroke:#ff2929;stroke-width:0.1;stroke-dasharray:none;stroke-opacity:0"
       d="m 60.694445,95.043349 1.008761,-0.157004 -0.0079,2.680869 0.270835,0.306163 -1.212868,-0.0039 0.302236,-0.200181 0.0039,-2.315834 z"
       id="path8" /><path
       style="mix-blend-mode:normal;fill:#f5efe7;fill-opacity:1;stroke:#ff2929;stroke-width:0.1;stroke-dasharray:none;stroke-opacity:0"
       d="m 73.759483,95.040452 1.008761,-0.157004 -0.0079,2.680869 0.270835,0.306163 -1.212868,-0.0039 0.302236,-0.200181 0.0039,-2.315834 z"
       id="path8-1" /><path
       style="mix-blend-mode:normal;fill:#f5efe7;fill-opacity:1;stroke:#ff2929;stroke-width:0.0789233;stroke-dasharray:none;stroke-opacity:0"
       d="m 75.479733,99.435045 0.823456,-0.119802 -0.0064,2.045657 0.221085,0.23362 -0.990072,-0.003 0.246716,-0.15275 0.0032,-1.767116 z"
       id="path8-1-8" /><ellipse
       style="mix-blend-mode:normal;fill:#f5efe7;fill-opacity:1;stroke:#ff2929;stroke-width:0.1;stroke-dasharray:none;stroke-opacity:0"
       id="path10"
       cx="61.375458"
       cy="93.855988"
       rx="0.34344977"
       ry="0.31204864" /><ellipse
       style="mix-blend-mode:normal;fill:#f5efe7;fill-opacity:1;stroke:#ff2929;stroke-width:0.1;stroke-dasharray:none;stroke-opacity:0"
       id="path10-9"
       cx="74.433037"
       cy="93.858025"
       rx="0.34344977"
       ry="0.31204864" /><ellipse
       style="mix-blend-mode:normal;fill:#f5efe7;fill-opacity:1;stroke:#ff2929;stroke-width:0.0846446;stroke-dasharray:none;stroke-opacity:0"
       id="path10-9-6"
       cx="76.020584"
       cy="98.681824"
       rx="0.28174016"
       ry="0.27254298" /><path
       style="mix-blend-mode:normal;fill:#f5efe7;fill-opacity:1;stroke:#ff2929;stroke-width:0.1;stroke-dasharray:none;stroke-opacity:0"
       d="m 63.249711,93.999263 c 0,0 -0.0785,0.839978 -1.020535,1.020535 l 10e-7,0.133457 0.455316,-0.0039 -0.0083,2.289918 c 0,0 -0.01943,0.380242 0.541221,0.491262 l 0.356123,-2.43e-4 c 0,0 0.445504,-0.06084 0.606435,-0.586809 0,0 -0.03277,-0.12905 -0.171542,-0.01803 0,0 -0.383019,0.649465 -0.704976,0.03331 l 0.0056,-2.22595 0.859191,0.0028 V 94.93541 l -0.85568,-0.0098 0.0039,-0.926333 z"
       id="path11" /><path
       style="mix-blend-mode:normal;fill:#f5efe7;fill-opacity:1;stroke:#ff2929;stroke-width:0.1;stroke-dasharray:none;stroke-opacity:0"
       d="m 65.459567,94.964847 -0.0039,0.647647 c 0,0 0.204108,-0.60447 0.741852,-0.686898 0,0 0.894907,-0.164855 0.816404,0.435691 0,0 0.0039,0.361113 -0.471017,0.502418 0,0 0.200182,-0.828204 -0.624097,-0.506343 0,0 -0.372889,0.329712 -0.455317,0.612322 l -7.04e-4,1.55838 0.294202,0.341385 -1.190686,-0.0028 0.291427,-0.180407 -0.0028,-2.400802 -0.352488,-0.158203 V 94.97461 Z"
       id="path12" /><path
       id="path13"
       style="mix-blend-mode:normal;fill:#f5efe7;fill-opacity:1;stroke:#ff2929;stroke-width:0.1;stroke-dasharray:none;stroke-opacity:0"
       d="m 68.540002,94.864494 c -0.890379,3.05e-4 -1.134297,0.551387 -1.134297,0.551387 -0.06753,-0.0278 -0.05013,0.487309 -0.05013,0.487309 l 0.325561,-0.0041 c 0.655547,-0.286536 -0.0078,-0.392741 -0.0078,-0.392741 l 0.0078,-0.152962 c 0.278685,-0.345412 0.706417,-0.227376 0.706417,-0.227376 0.647647,0.0785 0.628385,0.54932 0.628385,0.54932 l 0.0036,0.459404 -0.714169,0.0078 c -0.463165,-0.02355 -0.895035,0.33383 -0.895035,0.33383 -0.592696,0.514193 -0.249081,1.059883 -0.249081,1.059883 0.432977,0.627262 1.018543,0.424781 1.018543,0.424781 0.560649,-0.09159 0.782898,-0.5271 0.782898,-0.5271 l 0.09147,-0.0083 0.0057,0.494026 0.810287,0.0026 V 97.736153 H 69.60402 l -0.0057,-2.13682 c -0.205386,-0.788241 -0.871782,-0.727604 -0.871782,-0.727604 -0.06522,-0.0052 -0.127193,-0.0073 -0.186552,-0.0072 z m -0.212906,1.428336 0.655257,0.0031 v 0.857312 c 0,0 -0.322135,0.560705 -0.910539,0.410828 0,0 -0.754818,-0.566032 -0.01654,-1.132231 z" /><path
       style="mix-blend-mode:normal;fill:#f5efe7;fill-opacity:1;stroke:#ff2929;stroke-width:0.1;stroke-dasharray:none;stroke-opacity:0"
       d="m 70.244313,93.638149 0.942033,-0.102052 -0.0079,2.158825 c 0,0 0.431765,-0.816427 0.949883,-0.785027 0,0 0.580973,-0.251208 1.020588,0.408216 l -0.0157,2.166677 0.292462,0.406865 -1.060239,-0.01388 0.133224,-0.177632 0.01046,-2.162225 c 0,0 -0.0157,-0.529894 -0.67905,-0.286536 0,0 -0.443545,0.302239 -0.671203,0.702603 l -0.0039,1.730987 0.215883,0.204108 -1.099039,0.0039 0.227658,-0.204107 0.0079,-3.740659 -0.26691,-0.200182 z"
       id="path15" /><path
       style="mix-blend-mode:normal;fill:#f5efe7;fill-opacity:1;stroke:#ff2929;stroke-width:0.1;stroke-dasharray:none;stroke-opacity:0"
       d="m 75.515776,97.881227 h 1.067639 l -0.231585,-0.215884 0.0079,-1.699585 c 0,0 0.427842,-0.561295 0.679051,-0.655498 0,0 0.514144,-0.333636 0.67115,0.211958 v 2.021447 l -0.145231,0.345413 1.063714,0.0039 -0.294386,-0.290461 0.01178,-2.084249 c 0,0 -0.09813,-0.643723 -0.820354,-0.608397 -0.02356,2.5e-5 -0.580926,0.03535 -0.867461,0.427865 l -0.314011,0.376814 0.01178,-0.804654 -1.040162,0.184482 0.408215,0.215882 v 2.37471 z"
       id="path16" /><path
       style="mix-blend-mode:normal;fill:#f5efe7;fill-opacity:1;stroke:#ff2929;stroke-width:0.0766657;stroke-dasharray:none;stroke-opacity:0"
       d="m 76.901621,101.62296 h 0.808257 l -0.175322,-0.16761 0.0059,-1.31955 c 0,0 0.3239,-0.435773 0.514077,-0.508914 0,0 0.389234,-0.259029 0.508096,0.16456 v 1.569424 l -0.109947,0.26817 0.805286,0.003 -0.222866,-0.22551 0.009,-1.618183 c 0,0 -0.07429,-0.499777 -0.621049,-0.472349 -0.01783,1.9e-5 -0.439793,0.02745 -0.656715,0.332187 l -0.237722,0.292547 0.009,-0.624715 -0.787457,0.143229 0.30904,0.167608 v 1.843696 z"
       id="path16-7" /><path
       id="path17"
       style="mix-blend-mode:normal;fill:#f5efe7;fill-opacity:1;stroke:#ff2929;stroke-width:0.1;stroke-dasharray:none;stroke-opacity:0"
       d="m 81.776921,93.561731 -1.00459,0.144694 0.377754,0.304891 -0.0057,1.054716 c -0.79379,-0.438525 -1.315682,-0.01654 -1.315682,-0.01654 -0.543996,0.216488 -0.721403,0.910539 -0.721403,0.910539 -0.355263,1.232318 0.31626,1.703772 0.31626,1.703772 0.449629,0.355266 0.932759,0.260966 0.932759,0.260966 0.610608,-0.194283 0.79375,-0.555005 0.79375,-0.555005 v 0.510563 l 0.932243,0.0057 -0.266133,-0.255282 z m -1.35444,1.541508 c 0.396344,1.64e-4 0.72192,0.257349 0.72192,0.257349 l -0.01137,1.709456 c 0,0 -0.510603,0.738319 -1.071252,0.560689 0,0 -0.860177,-0.271862 -0.721403,-1.176672 0,0 -0.07254,-0.649562 0.521415,-1.1436 0.185611,-0.154386 0.380533,-0.207297 0.56069,-0.207222 z" /><path
       id="path17-4"
       style="mix-blend-mode:normal;fill:#f5efe7;fill-opacity:1;stroke:#ff2929;stroke-width:0.0746662;stroke-dasharray:none;stroke-opacity:0"
       d="m 81.717493,98.411047 -0.761711,0.106454 0.286287,0.224276 -0.0041,0.775146 c -0.602125,-0.322275 -0.998388,-0.0124 -0.998388,-0.0124 -0.412647,0.159114 -0.547254,0.669207 -0.547254,0.669207 -0.26948,0.90572 0.240296,1.25264 0.240296,1.25264 0.341063,0.26109 0.70745,0.19172 0.70745,0.19172 0.463175,-0.14276 0.60203,-0.40825 0.60203,-0.40825 v 0.37569 l 0.707451,0.004 -0.202055,-0.18759 z m -0.982886,1.09399 c 0.14152,-0.004 0.307211,0.05644 0.498161,0.22531 l -0.0026,1.265553 c 0,0 -0.153462,0.38348 -0.601514,0.35399 0,0 -0.664816,-0.0711 -0.523482,-1.2392 0,0 0.204857,-0.593625 0.629419,-0.605653 z" /><path
       style="mix-blend-mode:normal;fill:#f5efe7;fill-opacity:1;stroke:#ff2929;stroke-width:0.1;stroke-dasharray:none;stroke-opacity:0"
       d="m 56.349315,96.597704 h 0.251211 c 0,0 -0.513355,3.686426 3.228009,5.340616 0,0 2.738204,1.16727 5.666359,0.15458 0,0 2.072474,-0.51027 3.697482,-2.347231 l -0.0039,-0.930258 0.612322,-0.651573 h 0.16093 l 0.0196,4.254852 -0.836055,1.05194 v -3.44628 c 0,0 -1.554355,2.08425 -4.082146,2.75153 0,0 -2.080323,0.87138 -4.882874,0.157 0,0 -3.09301,-0.91063 -3.846637,-3.132259 0,0 -0.926336,-1.55436 0.0157,-3.202917 z"
       id="path19" /><path
       style="mix-blend-mode:normal;fill:#f5efe7;fill-opacity:1;stroke:#ff2929;stroke-width:0.1;stroke-dasharray:none;stroke-opacity:0"
       d="m 71.563322,101.60526 0.749382,-0.0111 -0.28865,-0.24424 -0.0056,-2.076072 1.082442,2.259252 h 0.149876 l 1.082442,-2.375822 0.04441,2.192642 -0.305302,0.24979 1.054687,-0.006 -0.288652,-0.22759 -0.0222,-2.481287 0.295288,-0.152297 -0.0039,-0.12953 -0.757553,0.01569 -1.048012,2.268734 -1.040161,-2.268734 -0.706525,-0.0039 v 0.129532 c 0,0 0.274759,-0.03533 0.32186,0.28261 l -0.01568,2.316262 z"
       id="path20" /></g></svg>
