<svg width="32" height="32" viewBox="0 0 32 32" fill="none" xmlns="http://www.w3.org/2000/svg">
<path d="M8 8.26667C8 6.77333 8 6.02667 8.29067 5.456C8.54633 4.95426 8.95426 4.54633 9.456 4.29067C10.0267 4 10.7733 4 12.2667 4H19.7333C21.2267 4 21.9733 4 22.544 4.29067C23.0457 4.54633 23.4537 4.95426 23.7093 5.456C24 6.02667 24 6.77333 24 8.26667V26.0067C24 26.6547 24 26.9787 23.8653 27.156C23.8071 27.2331 23.7329 27.2967 23.6477 27.3423C23.5625 27.3878 23.4684 27.4144 23.372 27.42C23.1493 27.4333 22.88 27.2533 22.3413 26.8947L16 22.6667L9.65867 26.8933C9.12 27.2533 8.85067 27.4333 8.62667 27.42C8.53045 27.4142 8.43664 27.3876 8.3517 27.342C8.26676 27.2964 8.19271 27.233 8.13467 27.156C8 26.9787 8 26.6547 8 26.0067V8.26667Z" fill="black" stroke="black" stroke-width="1.5" stroke-linecap="round" stroke-linejoin="round"/>
<path opacity="0.5" d="M8 8.26667C8 6.77333 8 6.02667 8.29067 5.456C8.54633 4.95426 8.95426 4.54633 9.456 4.29067C10.0267 4 10.7733 4 12.2667 4H19.7333C21.2267 4 21.9733 4 22.544 4.29067C23.0457 4.54633 23.4537 4.95426 23.7093 5.456C24 6.02667 24 6.77333 24 8.26667V26.0067C24 26.6547 24 26.9787 23.8653 27.156C23.8071 27.2331 23.7329 27.2967 23.6477 27.3423C23.5625 27.3878 23.4684 27.4144 23.372 27.42C23.1493 27.4333 22.88 27.2533 22.3413 26.8947L16 22.6667L9.65867 26.8933C9.12 27.2533 8.85067 27.4333 8.62667 27.42C8.53045 27.4142 8.43664 27.3876 8.3517 27.342C8.26676 27.2964 8.19271 27.233 8.13467 27.156C8 26.9787 8 26.6547 8 26.0067V8.26667Z" fill="black"/>
</svg>
