<svg width="32" height="32" viewBox="0 0 32 32" fill="none" xmlns="http://www.w3.org/2000/svg">
<path d="M16.0001 24L10.4001 26.4C9.51119 26.7778 8.66675 26.7058 7.86675 26.184C7.06675 25.6622 6.66675 24.9231 6.66675 23.9667V6.66667C6.66675 5.93334 6.92808 5.30578 7.45075 4.784C7.97341 4.26223 8.60097 4.00089 9.33341 4H16.0001C16.3779 4 16.6947 4.128 16.9507 4.384C17.2067 4.64 17.3343 4.95645 17.3334 5.33334C17.3325 5.71023 17.2045 6.02712 16.9494 6.284C16.6943 6.54089 16.3779 6.66845 16.0001 6.66667H9.33341V23.9333L16.0001 21.0667L22.6667 23.9333V16C22.6667 15.6222 22.7947 15.3058 23.0507 15.0507C23.3067 14.7956 23.6232 14.6676 24.0001 14.6667C24.377 14.6658 24.6939 14.7938 24.9507 15.0507C25.2076 15.3076 25.3352 15.624 25.3334 16V23.9667C25.3334 24.9222 24.9334 25.6613 24.1334 26.184C23.3334 26.7067 22.489 26.7787 21.6001 26.4L16.0001 24ZM16.0001 6.66667H9.33341H17.3334H16.0001ZM22.6667 9.33334H21.3334C20.9556 9.33334 20.6392 9.20534 20.3841 8.94934C20.129 8.69334 20.001 8.37689 20.0001 8C19.9992 7.62312 20.1272 7.30667 20.3841 7.05067C20.641 6.79467 20.9574 6.66667 21.3334 6.66667H22.6667V5.33334C22.6667 4.95556 22.7947 4.63912 23.0507 4.384C23.3067 4.12889 23.6232 4.00089 24.0001 4C24.377 3.99912 24.6939 4.12712 24.9507 4.384C25.2076 4.64089 25.3352 4.95734 25.3334 5.33334V6.66667H26.6667C27.0445 6.66667 27.3614 6.79467 27.6174 7.05067C27.8734 7.30667 28.001 7.62312 28.0001 8C27.9992 8.37689 27.8712 8.69378 27.6161 8.95067C27.361 9.20756 27.0445 9.33512 26.6667 9.33334H25.3334V10.6667C25.3334 11.0444 25.2054 11.3613 24.9494 11.6173C24.6934 11.8733 24.377 12.0009 24.0001 12C23.6232 11.9991 23.3067 11.8711 23.0507 11.616C22.7947 11.3609 22.6667 11.0444 22.6667 10.6667V9.33334Z" fill="black"/>
</svg>
