<svg width="32" height="32" viewBox="0 0 32 32" fill="none" xmlns="http://www.w3.org/2000/svg">
<path fill-rule="evenodd" clip-rule="evenodd" d="M5.33325 6.66675C5.33325 5.60588 5.75468 4.58847 6.50482 3.83832C7.25497 3.08818 8.27239 2.66675 9.33325 2.66675H22.6666C23.7275 2.66675 24.7449 3.08818 25.495 3.83832C26.2452 4.58847 26.6666 5.60588 26.6666 6.66675V28.0374C26.6666 29.6641 24.8266 30.6107 23.5039 29.6654L15.9999 24.3054L8.49592 29.6654C7.17192 30.6121 5.33325 29.6654 5.33325 28.0387V6.66675ZM9.33325 5.33341C8.97963 5.33341 8.64049 5.47389 8.39044 5.72394C8.14039 5.97399 7.99992 6.31313 7.99992 6.66675V26.7427L14.8373 21.8587C15.1765 21.6164 15.583 21.4861 15.9999 21.4861C16.4168 21.4861 16.8233 21.6164 17.1626 21.8587L23.9999 26.7427V6.66675C23.9999 6.31313 23.8594 5.97399 23.6094 5.72394C23.3593 5.47389 23.0202 5.33341 22.6666 5.33341H9.33325Z" fill="black"/>
</svg>
