<svg width="24" height="24" viewBox="0 0 24 24" fill="none" xmlns="http://www.w3.org/2000/svg">
<g clip-path="url(#clip0_38_473)">
<path d="M22.0001 4.26669L19.5334 1.80003C19.3214 1.59788 19.0397 1.48511 18.7467 1.48511C18.4538 1.48511 18.1721 1.59788 17.9601 1.80003L15.7667 4.00003H4.00008C3.64646 4.00003 3.30732 4.1405 3.05727 4.39055C2.80722 4.6406 2.66675 4.97974 2.66675 5.33336V20C2.66675 20.3536 2.80722 20.6928 3.05727 20.9428C3.30732 21.1929 3.64646 21.3334 4.00008 21.3334H18.6667C19.0204 21.3334 19.3595 21.1929 19.6096 20.9428C19.8596 20.6928 20.0001 20.3536 20.0001 20V7.84003L22.0001 5.84003C22.2085 5.63128 22.3256 5.34835 22.3256 5.05336C22.3256 4.75837 22.2085 4.47544 22.0001 4.26669ZM12.5534 13.42L9.76008 14.04L10.4267 11.2734L16.7934 4.89336L18.9467 7.04669L12.5534 13.42ZM19.6667 6.28669L17.5134 4.13336L18.7467 2.90003L20.9001 5.05336L19.6667 6.28669Z" fill="black"/>
</g>
<defs>
<clipPath id="clip0_38_473">
<rect width="24" height="24" fill="white"/>
</clipPath>
</defs>
</svg>
