<svg width="32" height="32" viewBox="0 0 32 32" fill="none" xmlns="http://www.w3.org/2000/svg">
<g clip-path="url(#clip0_42_635)">
<path d="M29.3334 5.68901L26.0446 2.40012C25.7619 2.13059 25.3863 1.98022 24.9957 1.98022C24.6051 1.98022 24.2295 2.13059 23.9468 2.40012L21.0223 5.33345H5.33344C4.86195 5.33345 4.40976 5.52075 4.07636 5.85415C3.74297 6.18755 3.55566 6.63973 3.55566 7.11123V26.6668C3.55566 27.1383 3.74297 27.5905 4.07636 27.9239C4.40976 28.2573 4.86195 28.4446 5.33344 28.4446H24.889C25.3605 28.4446 25.8127 28.2573 26.1461 27.9239C26.4795 27.5905 26.6668 27.1383 26.6668 26.6668V10.4535L29.3334 7.78679C29.6114 7.50846 29.7675 7.13122 29.7675 6.7379C29.7675 6.34458 29.6114 5.96733 29.3334 5.68901ZM16.7379 17.8935L13.0134 18.7201L13.9023 15.0312L22.3912 6.52456L25.2623 9.39567L16.7379 17.8935ZM26.2223 8.38234L23.3512 5.51123L24.9957 3.86679L27.8668 6.7379L26.2223 8.38234Z" fill="black"/>
</g>
<defs>
<clipPath id="clip0_42_635">
<rect width="32" height="32" fill="white"/>
</clipPath>
</defs>
</svg>
