<svg width="24" height="24" viewBox="0 0 24 24" fill="none" xmlns="http://www.w3.org/2000/svg">
<path d="M12.2709 0.846773C9.83324 0.846773 7.83252 2.98896 7.83252 5.68221C7.83252 8.37541 9.83324 10.5176 12.271 10.5176C14.7088 10.5176 16.711 8.37541 16.711 5.68216C16.711 2.98891 14.7088 0.84668 12.271 0.84668L12.2709 0.846773ZM9.51561 7.4839C10.1379 7.65593 10.7528 7.7673 11.3613 7.82234V8.70124C10.6735 8.64452 9.98019 8.52077 9.28124 8.32765L9.51561 7.4839ZM15.0176 7.4839L15.2475 8.32905C14.5701 8.51365 13.8844 8.63763 13.1909 8.69679V7.81938C13.8043 7.76205 14.4123 7.64885 15.0177 7.48395L15.0176 7.4839ZM7.5103 8.21932C3.98024 10.6004 2.32574 14.0884 2.05958 18.5318H2.0698C2.05226 18.6132 2.04343 18.6961 2.04346 18.7793C2.04346 19.4266 2.56799 19.9512 3.21533 19.9512C3.22564 19.9512 3.23577 19.95 3.24608 19.9498V19.9601L11.6572 19.96V14.1754C10.4582 14.4013 9.53755 15.5108 9.53755 17.1094V17.5474H4.83261V16.6714H5.42877C5.60052 15.0225 6.67199 13.0153 7.55422 11.9209L8.23532 12.4703C7.50322 13.3784 6.51955 15.3608 6.31789 16.6714H8.68368C8.87305 14.6989 10.3322 13.2554 12.1159 13.2554C13.7556 13.2554 15.334 14.6128 15.5802 16.6715H18.1934C17.9398 15.3447 16.9498 13.3752 16.2203 12.4703L16.903 11.9211C17.7882 13.0191 18.855 15.0376 19.0856 16.6715H19.5807V17.5475H14.7465L14.7348 17.1213C14.687 15.4499 13.63 14.3915 12.5331 14.174V19.9601H21.0014V19.9498C21.0117 19.9501 21.0218 19.9513 21.0322 19.9513C21.6796 19.9513 22.2041 19.4267 22.2041 18.7795C22.2041 18.6814 22.1916 18.5863 22.169 18.4953C21.9081 14.1544 20.3398 10.7299 16.9643 8.36004C16.0725 10.1579 14.3116 11.3938 12.271 11.3938C10.1774 11.3938 8.37814 10.0935 7.51035 8.21941L7.5103 8.21932ZM6.58002 20.836L7.01071 23.0626H17.3496L17.7466 20.836H6.58002Z" fill="black"/>
</svg>
